<mxfile host="Electron" modified="2023-07-23T00:19:57.089Z" agent="Mozilla/5.0 (X11; Linux x86_64) AppleWebKit/537.36 (KHTML, like Gecko) draw.io/21.6.5 Chrome/114.0.5735.243 Electron/25.3.1 Safari/537.36" etag="j_2aP95MpE1QNIObcSvc" version="21.6.5" type="device">
  <diagram name="Página-1" id="mL00pPlXDIH9RWISwiWA">
    <mxGraphModel dx="2089" dy="669" grid="1" gridSize="10" guides="1" tooltips="1" connect="1" arrows="1" fold="1" page="1" pageScale="1" pageWidth="827" pageHeight="1169" math="0" shadow="0">
      <root>
        <mxCell id="0" />
        <mxCell id="1" parent="0" />
        <mxCell id="G01MxNeBXoQxvPtCTH04-15" value="Assets" style="childLayout=tableLayout;recursiveResize=0;strokeColor=#98bf21;fillColor=#A7C942;shadow=1;" parent="1" vertex="1">
          <mxGeometry x="-30" y="110" width="160" height="157" as="geometry" />
        </mxCell>
        <mxCell id="G01MxNeBXoQxvPtCTH04-16" style="shape=tableRow;horizontal=0;startSize=0;swimlaneHead=0;swimlaneBody=0;top=0;left=0;bottom=0;right=0;dropTarget=0;collapsible=0;recursiveResize=0;expand=0;fontStyle=0;strokeColor=inherit;fillColor=#ffffff;" parent="G01MxNeBXoQxvPtCTH04-15" vertex="1">
          <mxGeometry width="160" height="33" as="geometry" />
        </mxCell>
        <mxCell id="G01MxNeBXoQxvPtCTH04-17" value="&lt;h1&gt;Revista&lt;/h1&gt;" style="connectable=0;recursiveResize=0;strokeColor=inherit;fillColor=#A7C942;align=center;fontStyle=1;fontColor=#FFFFFF;html=1;" parent="G01MxNeBXoQxvPtCTH04-16" vertex="1">
          <mxGeometry width="160" height="33" as="geometry">
            <mxRectangle width="160" height="33" as="alternateBounds" />
          </mxGeometry>
        </mxCell>
        <mxCell id="G01MxNeBXoQxvPtCTH04-24" value="" style="shape=tableRow;horizontal=0;startSize=0;swimlaneHead=0;swimlaneBody=0;top=0;left=0;bottom=0;right=0;dropTarget=0;collapsible=0;recursiveResize=0;expand=0;fontStyle=1;strokeColor=inherit;fillColor=#EAF2D3;" parent="G01MxNeBXoQxvPtCTH04-15" vertex="1">
          <mxGeometry y="33" width="160" height="31" as="geometry" />
        </mxCell>
        <mxCell id="G01MxNeBXoQxvPtCTH04-25" value="&lt;font color=&quot;#030303&quot;&gt;numero_registro&lt;/font&gt; &lt;font color=&quot;#1ba1e2&quot;&gt;INT&lt;/font&gt; &lt;font color=&quot;#66cc00&quot;&gt;PRIMARY KEY&lt;/font&gt;" style="connectable=0;recursiveResize=0;strokeColor=inherit;fillColor=inherit;whiteSpace=wrap;html=1;" parent="G01MxNeBXoQxvPtCTH04-24" vertex="1">
          <mxGeometry width="160" height="31" as="geometry">
            <mxRectangle width="160" height="31" as="alternateBounds" />
          </mxGeometry>
        </mxCell>
        <mxCell id="G01MxNeBXoQxvPtCTH04-40" style="shape=tableRow;horizontal=0;startSize=0;swimlaneHead=0;swimlaneBody=0;top=0;left=0;bottom=0;right=0;dropTarget=0;collapsible=0;recursiveResize=0;expand=0;fontStyle=1;strokeColor=inherit;fillColor=#EAF2D3;" parent="G01MxNeBXoQxvPtCTH04-15" vertex="1">
          <mxGeometry y="64" width="160" height="31" as="geometry" />
        </mxCell>
        <mxCell id="G01MxNeBXoQxvPtCTH04-41" value="&lt;font color=&quot;#030303&quot;&gt;titulo&lt;/font&gt; &lt;font color=&quot;#1ba1e2&quot;&gt;VARCHAR&lt;/font&gt;(50)" style="connectable=0;recursiveResize=0;strokeColor=inherit;fillColor=inherit;whiteSpace=wrap;html=1;" parent="G01MxNeBXoQxvPtCTH04-40" vertex="1">
          <mxGeometry width="160" height="31" as="geometry">
            <mxRectangle width="160" height="31" as="alternateBounds" />
          </mxGeometry>
        </mxCell>
        <mxCell id="G01MxNeBXoQxvPtCTH04-42" style="shape=tableRow;horizontal=0;startSize=0;swimlaneHead=0;swimlaneBody=0;top=0;left=0;bottom=0;right=0;dropTarget=0;collapsible=0;recursiveResize=0;expand=0;fontStyle=1;strokeColor=inherit;fillColor=#EAF2D3;" parent="G01MxNeBXoQxvPtCTH04-15" vertex="1">
          <mxGeometry y="95" width="160" height="31" as="geometry" />
        </mxCell>
        <mxCell id="G01MxNeBXoQxvPtCTH04-43" value="&lt;font color=&quot;#030303&quot;&gt;periodicidad&lt;/font&gt; &lt;font color=&quot;#1ba1e2&quot;&gt;VARCHAR&lt;/font&gt;(25)" style="connectable=0;recursiveResize=0;strokeColor=inherit;fillColor=inherit;whiteSpace=wrap;html=1;" parent="G01MxNeBXoQxvPtCTH04-42" vertex="1">
          <mxGeometry width="160" height="31" as="geometry">
            <mxRectangle width="160" height="31" as="alternateBounds" />
          </mxGeometry>
        </mxCell>
        <mxCell id="G01MxNeBXoQxvPtCTH04-48" style="shape=tableRow;horizontal=0;startSize=0;swimlaneHead=0;swimlaneBody=0;top=0;left=0;bottom=0;right=0;dropTarget=0;collapsible=0;recursiveResize=0;expand=0;fontStyle=1;strokeColor=inherit;fillColor=#EAF2D3;" parent="G01MxNeBXoQxvPtCTH04-15" vertex="1">
          <mxGeometry y="126" width="160" height="31" as="geometry" />
        </mxCell>
        <mxCell id="G01MxNeBXoQxvPtCTH04-49" value="&lt;font color=&quot;#030303&quot;&gt;tipo&lt;/font&gt; &lt;font color=&quot;#1ba1e2&quot;&gt;VARCHAR&lt;/font&gt;(25)" style="connectable=0;recursiveResize=0;strokeColor=inherit;fillColor=inherit;whiteSpace=wrap;html=1;" parent="G01MxNeBXoQxvPtCTH04-48" vertex="1">
          <mxGeometry width="160" height="31" as="geometry">
            <mxRectangle width="160" height="31" as="alternateBounds" />
          </mxGeometry>
        </mxCell>
        <mxCell id="G01MxNeBXoQxvPtCTH04-54" value="Assets" style="childLayout=tableLayout;recursiveResize=0;strokeColor=#98bf21;fillColor=#A7C942;shadow=1;" parent="1" vertex="1">
          <mxGeometry x="667" y="60" width="160" height="126" as="geometry" />
        </mxCell>
        <mxCell id="G01MxNeBXoQxvPtCTH04-55" style="shape=tableRow;horizontal=0;startSize=0;swimlaneHead=0;swimlaneBody=0;top=0;left=0;bottom=0;right=0;dropTarget=0;collapsible=0;recursiveResize=0;expand=0;fontStyle=0;strokeColor=inherit;fillColor=#ffffff;" parent="G01MxNeBXoQxvPtCTH04-54" vertex="1">
          <mxGeometry width="160" height="33" as="geometry" />
        </mxCell>
        <mxCell id="G01MxNeBXoQxvPtCTH04-56" value="&lt;h1&gt;Sucursal&lt;/h1&gt;" style="connectable=0;recursiveResize=0;strokeColor=inherit;fillColor=#A7C942;align=center;fontStyle=1;fontColor=#FFFFFF;html=1;" parent="G01MxNeBXoQxvPtCTH04-55" vertex="1">
          <mxGeometry width="160" height="33" as="geometry">
            <mxRectangle width="160" height="33" as="alternateBounds" />
          </mxGeometry>
        </mxCell>
        <mxCell id="G01MxNeBXoQxvPtCTH04-57" value="" style="shape=tableRow;horizontal=0;startSize=0;swimlaneHead=0;swimlaneBody=0;top=0;left=0;bottom=0;right=0;dropTarget=0;collapsible=0;recursiveResize=0;expand=0;fontStyle=1;strokeColor=inherit;fillColor=#EAF2D3;" parent="G01MxNeBXoQxvPtCTH04-54" vertex="1">
          <mxGeometry y="33" width="160" height="31" as="geometry" />
        </mxCell>
        <mxCell id="G01MxNeBXoQxvPtCTH04-58" value="&lt;font color=&quot;#030303&quot;&gt;codigo_sucursal&lt;/font&gt; &lt;font color=&quot;#1ba1e2&quot;&gt;INT&lt;/font&gt; &lt;font color=&quot;#66cc00&quot;&gt;PRIMARY KEY&lt;/font&gt;" style="connectable=0;recursiveResize=0;strokeColor=inherit;fillColor=inherit;whiteSpace=wrap;html=1;" parent="G01MxNeBXoQxvPtCTH04-57" vertex="1">
          <mxGeometry width="160" height="31" as="geometry">
            <mxRectangle width="160" height="31" as="alternateBounds" />
          </mxGeometry>
        </mxCell>
        <mxCell id="G01MxNeBXoQxvPtCTH04-59" style="shape=tableRow;horizontal=0;startSize=0;swimlaneHead=0;swimlaneBody=0;top=0;left=0;bottom=0;right=0;dropTarget=0;collapsible=0;recursiveResize=0;expand=0;fontStyle=1;strokeColor=inherit;fillColor=#EAF2D3;" parent="G01MxNeBXoQxvPtCTH04-54" vertex="1">
          <mxGeometry y="64" width="160" height="31" as="geometry" />
        </mxCell>
        <mxCell id="G01MxNeBXoQxvPtCTH04-60" value="&lt;font color=&quot;#030303&quot;&gt;telefono&lt;/font&gt;&amp;nbsp;&lt;font color=&quot;#1ba1e2&quot;&gt;VARCHAR&lt;/font&gt;(25)" style="connectable=0;recursiveResize=0;strokeColor=inherit;fillColor=inherit;whiteSpace=wrap;html=1;" parent="G01MxNeBXoQxvPtCTH04-59" vertex="1">
          <mxGeometry width="160" height="31" as="geometry">
            <mxRectangle width="160" height="31" as="alternateBounds" />
          </mxGeometry>
        </mxCell>
        <mxCell id="G01MxNeBXoQxvPtCTH04-61" style="shape=tableRow;horizontal=0;startSize=0;swimlaneHead=0;swimlaneBody=0;top=0;left=0;bottom=0;right=0;dropTarget=0;collapsible=0;recursiveResize=0;expand=0;fontStyle=1;strokeColor=inherit;fillColor=#EAF2D3;" parent="G01MxNeBXoQxvPtCTH04-54" vertex="1">
          <mxGeometry y="95" width="160" height="31" as="geometry" />
        </mxCell>
        <mxCell id="G01MxNeBXoQxvPtCTH04-62" value="&lt;font color=&quot;#030303&quot;&gt;domicilio&lt;/font&gt;&amp;nbsp;&lt;font color=&quot;#1ba1e2&quot;&gt;VARCHAR&lt;/font&gt;(50)" style="connectable=0;recursiveResize=0;strokeColor=inherit;fillColor=inherit;whiteSpace=wrap;html=1;" parent="G01MxNeBXoQxvPtCTH04-61" vertex="1">
          <mxGeometry width="160" height="31" as="geometry">
            <mxRectangle width="160" height="31" as="alternateBounds" />
          </mxGeometry>
        </mxCell>
        <mxCell id="G01MxNeBXoQxvPtCTH04-65" value="Assets" style="childLayout=tableLayout;recursiveResize=0;strokeColor=#98bf21;fillColor=#A7C942;shadow=1;" parent="1" vertex="1">
          <mxGeometry x="340" y="70" width="240" height="157" as="geometry" />
        </mxCell>
        <mxCell id="G01MxNeBXoQxvPtCTH04-66" style="shape=tableRow;horizontal=0;startSize=0;swimlaneHead=0;swimlaneBody=0;top=0;left=0;bottom=0;right=0;dropTarget=0;collapsible=0;recursiveResize=0;expand=0;fontStyle=0;strokeColor=inherit;fillColor=#ffffff;" parent="G01MxNeBXoQxvPtCTH04-65" vertex="1">
          <mxGeometry width="240" height="33" as="geometry" />
        </mxCell>
        <mxCell id="G01MxNeBXoQxvPtCTH04-67" value="&lt;h1&gt;Publicación&lt;/h1&gt;" style="connectable=0;recursiveResize=0;strokeColor=inherit;fillColor=#A7C942;align=center;fontStyle=1;fontColor=#FFFFFF;html=1;" parent="G01MxNeBXoQxvPtCTH04-66" vertex="1">
          <mxGeometry width="240" height="33" as="geometry">
            <mxRectangle width="240" height="33" as="alternateBounds" />
          </mxGeometry>
        </mxCell>
        <mxCell id="G01MxNeBXoQxvPtCTH04-68" value="" style="shape=tableRow;horizontal=0;startSize=0;swimlaneHead=0;swimlaneBody=0;top=0;left=0;bottom=0;right=0;dropTarget=0;collapsible=0;recursiveResize=0;expand=0;fontStyle=1;strokeColor=inherit;fillColor=#EAF2D3;" parent="G01MxNeBXoQxvPtCTH04-65" vertex="1">
          <mxGeometry y="33" width="240" height="31" as="geometry" />
        </mxCell>
        <mxCell id="G01MxNeBXoQxvPtCTH04-69" value="&lt;font color=&quot;#030303&quot;&gt;codigo_sucursal&lt;/font&gt; &lt;font color=&quot;#1ba1e2&quot;&gt;INT&lt;/font&gt;" style="connectable=0;recursiveResize=0;strokeColor=inherit;fillColor=inherit;whiteSpace=wrap;html=1;" parent="G01MxNeBXoQxvPtCTH04-68" vertex="1">
          <mxGeometry width="240" height="31" as="geometry">
            <mxRectangle width="240" height="31" as="alternateBounds" />
          </mxGeometry>
        </mxCell>
        <mxCell id="G01MxNeBXoQxvPtCTH04-76" style="shape=tableRow;horizontal=0;startSize=0;swimlaneHead=0;swimlaneBody=0;top=0;left=0;bottom=0;right=0;dropTarget=0;collapsible=0;recursiveResize=0;expand=0;fontStyle=1;strokeColor=inherit;fillColor=#EAF2D3;" parent="G01MxNeBXoQxvPtCTH04-65" vertex="1">
          <mxGeometry y="64" width="240" height="31" as="geometry" />
        </mxCell>
        <mxCell id="G01MxNeBXoQxvPtCTH04-77" value="&lt;span style=&quot;color: rgb(0, 0, 0); font-family: Helvetica; font-size: 12px; font-style: normal; font-variant-ligatures: normal; font-variant-caps: normal; font-weight: 400; letter-spacing: normal; orphans: 2; text-align: center; text-indent: 0px; text-transform: none; widows: 2; word-spacing: 0px; -webkit-text-stroke-width: 0px; text-decoration-thickness: initial; text-decoration-style: initial; text-decoration-color: initial; float: none; display: inline !important;&quot;&gt;numero_registro&amp;nbsp;&lt;/span&gt;&lt;font style=&quot;border-color: var(--border-color); font-family: Helvetica; font-size: 12px; font-style: normal; font-variant-ligatures: normal; font-variant-caps: normal; font-weight: 400; letter-spacing: normal; orphans: 2; text-align: center; text-indent: 0px; text-transform: none; widows: 2; word-spacing: 0px; -webkit-text-stroke-width: 0px; text-decoration-thickness: initial; text-decoration-style: initial; text-decoration-color: initial;&quot; color=&quot;#1ba1e2&quot;&gt;INT&lt;/font&gt;" style="connectable=0;recursiveResize=0;strokeColor=inherit;fillColor=inherit;whiteSpace=wrap;html=1;" parent="G01MxNeBXoQxvPtCTH04-76" vertex="1">
          <mxGeometry width="240" height="31" as="geometry">
            <mxRectangle width="240" height="31" as="alternateBounds" />
          </mxGeometry>
        </mxCell>
        <mxCell id="G01MxNeBXoQxvPtCTH04-74" style="shape=tableRow;horizontal=0;startSize=0;swimlaneHead=0;swimlaneBody=0;top=0;left=0;bottom=0;right=0;dropTarget=0;collapsible=0;recursiveResize=0;expand=0;fontStyle=1;strokeColor=inherit;fillColor=#EAF2D3;" parent="G01MxNeBXoQxvPtCTH04-65" vertex="1">
          <mxGeometry y="95" width="240" height="31" as="geometry" />
        </mxCell>
        <mxCell id="G01MxNeBXoQxvPtCTH04-75" value="&lt;font color=&quot;#66cc00&quot;&gt;FOREIGN KEY&lt;/font&gt; &lt;font color=&quot;#030303&quot;&gt;(codigo_sucursal)&lt;/font&gt; &lt;font color=&quot;#66cc00&quot;&gt;REFERENCES&lt;/font&gt; &lt;font color=&quot;#030303&quot;&gt;Sucursal(codigo_sucursal)&lt;/font&gt;" style="connectable=0;recursiveResize=0;strokeColor=inherit;fillColor=inherit;whiteSpace=wrap;html=1;" parent="G01MxNeBXoQxvPtCTH04-74" vertex="1">
          <mxGeometry width="240" height="31" as="geometry">
            <mxRectangle width="240" height="31" as="alternateBounds" />
          </mxGeometry>
        </mxCell>
        <mxCell id="G01MxNeBXoQxvPtCTH04-78" style="shape=tableRow;horizontal=0;startSize=0;swimlaneHead=0;swimlaneBody=0;top=0;left=0;bottom=0;right=0;dropTarget=0;collapsible=0;recursiveResize=0;expand=0;fontStyle=1;strokeColor=inherit;fillColor=#EAF2D3;" parent="G01MxNeBXoQxvPtCTH04-65" vertex="1">
          <mxGeometry y="126" width="240" height="31" as="geometry" />
        </mxCell>
        <mxCell id="G01MxNeBXoQxvPtCTH04-79" value="&lt;font style=&quot;border-color: var(--border-color);&quot; color=&quot;#66cc00&quot;&gt;FOREIGN KEY&lt;/font&gt;&amp;nbsp;&lt;font color=&quot;#030303&quot;&gt;(numero_registro)&amp;nbsp;&lt;/font&gt;&lt;br&gt;&lt;font style=&quot;border-color: var(--border-color);&quot; color=&quot;#66cc00&quot;&gt;REFERENCES&lt;/font&gt;&amp;nbsp;&lt;font color=&quot;#030303&quot;&gt;Revista(numero_registro)&lt;/font&gt;" style="connectable=0;recursiveResize=0;strokeColor=inherit;fillColor=inherit;whiteSpace=wrap;html=1;" parent="G01MxNeBXoQxvPtCTH04-78" vertex="1">
          <mxGeometry width="240" height="31" as="geometry">
            <mxRectangle width="240" height="31" as="alternateBounds" />
          </mxGeometry>
        </mxCell>
        <mxCell id="G01MxNeBXoQxvPtCTH04-80" value="" style="edgeStyle=entityRelationEdgeStyle;fontSize=12;html=1;endArrow=ERmandOne;startArrow=ERoneToMany;rounded=0;entryX=0;entryY=0.75;entryDx=0;entryDy=0;exitX=1;exitY=0.5;exitDx=0;exitDy=0;strokeWidth=2;endFill=0;" parent="1" source="G01MxNeBXoQxvPtCTH04-66" target="G01MxNeBXoQxvPtCTH04-55" edge="1">
          <mxGeometry width="100" height="100" relative="1" as="geometry">
            <mxPoint x="570" y="360" as="sourcePoint" />
            <mxPoint x="670" y="260" as="targetPoint" />
          </mxGeometry>
        </mxCell>
        <mxCell id="G01MxNeBXoQxvPtCTH04-81" value="" style="edgeStyle=entityRelationEdgeStyle;fontSize=12;html=1;endArrow=ERoneToMany;startArrow=ERmandOne;rounded=0;entryX=0;entryY=0.5;entryDx=0;entryDy=0;exitX=1;exitY=0.5;exitDx=0;exitDy=0;strokeWidth=2;startFill=0;" parent="1" source="G01MxNeBXoQxvPtCTH04-16" target="G01MxNeBXoQxvPtCTH04-66" edge="1">
          <mxGeometry width="100" height="100" relative="1" as="geometry">
            <mxPoint x="230" y="110" as="sourcePoint" />
            <mxPoint x="320" y="138" as="targetPoint" />
            <Array as="points">
              <mxPoint x="170" y="153" />
              <mxPoint x="-30" y="153" />
            </Array>
          </mxGeometry>
        </mxCell>
        <mxCell id="G01MxNeBXoQxvPtCTH04-82" value="Assets" style="childLayout=tableLayout;recursiveResize=0;strokeColor=#98bf21;fillColor=#A7C942;shadow=1;" parent="1" vertex="1">
          <mxGeometry x="420" y="240" width="240" height="250" as="geometry" />
        </mxCell>
        <mxCell id="G01MxNeBXoQxvPtCTH04-83" style="shape=tableRow;horizontal=0;startSize=0;swimlaneHead=0;swimlaneBody=0;top=0;left=0;bottom=0;right=0;dropTarget=0;collapsible=0;recursiveResize=0;expand=0;fontStyle=0;strokeColor=inherit;fillColor=#ffffff;" parent="G01MxNeBXoQxvPtCTH04-82" vertex="1">
          <mxGeometry width="240" height="33" as="geometry" />
        </mxCell>
        <mxCell id="G01MxNeBXoQxvPtCTH04-84" value="&lt;h1&gt;Empleado&lt;/h1&gt;" style="connectable=0;recursiveResize=0;strokeColor=inherit;fillColor=#A7C942;align=center;fontStyle=1;fontColor=#FFFFFF;html=1;" parent="G01MxNeBXoQxvPtCTH04-83" vertex="1">
          <mxGeometry width="240" height="33" as="geometry">
            <mxRectangle width="240" height="33" as="alternateBounds" />
          </mxGeometry>
        </mxCell>
        <mxCell id="G01MxNeBXoQxvPtCTH04-85" value="" style="shape=tableRow;horizontal=0;startSize=0;swimlaneHead=0;swimlaneBody=0;top=0;left=0;bottom=0;right=0;dropTarget=0;collapsible=0;recursiveResize=0;expand=0;fontStyle=1;strokeColor=inherit;fillColor=#EAF2D3;" parent="G01MxNeBXoQxvPtCTH04-82" vertex="1">
          <mxGeometry y="33" width="240" height="31" as="geometry" />
        </mxCell>
        <mxCell id="G01MxNeBXoQxvPtCTH04-86" value="&lt;font color=&quot;#030303&quot;&gt;nif&lt;/font&gt;&amp;nbsp;&lt;font color=&quot;#1ba1e2&quot;&gt;INT&lt;/font&gt; &lt;font color=&quot;#66cc00&quot;&gt;PRIMARY KEY&lt;/font&gt;" style="connectable=0;recursiveResize=0;strokeColor=inherit;fillColor=inherit;whiteSpace=wrap;html=1;" parent="G01MxNeBXoQxvPtCTH04-85" vertex="1">
          <mxGeometry width="240" height="31" as="geometry">
            <mxRectangle width="240" height="31" as="alternateBounds" />
          </mxGeometry>
        </mxCell>
        <mxCell id="Vr2GeewXSMRQuyDrMyL5-9" style="shape=tableRow;horizontal=0;startSize=0;swimlaneHead=0;swimlaneBody=0;top=0;left=0;bottom=0;right=0;dropTarget=0;collapsible=0;recursiveResize=0;expand=0;fontStyle=1;strokeColor=inherit;fillColor=#EAF2D3;" vertex="1" parent="G01MxNeBXoQxvPtCTH04-82">
          <mxGeometry y="64" width="240" height="31" as="geometry" />
        </mxCell>
        <mxCell id="Vr2GeewXSMRQuyDrMyL5-10" value="&lt;font color=&quot;#030303&quot;&gt;codigo_sucursal&lt;/font&gt;&amp;nbsp;&lt;font color=&quot;#1ba1e2&quot;&gt;INT&lt;/font&gt;" style="connectable=0;recursiveResize=0;strokeColor=inherit;fillColor=inherit;whiteSpace=wrap;html=1;" vertex="1" parent="Vr2GeewXSMRQuyDrMyL5-9">
          <mxGeometry width="240" height="31" as="geometry">
            <mxRectangle width="240" height="31" as="alternateBounds" />
          </mxGeometry>
        </mxCell>
        <mxCell id="G01MxNeBXoQxvPtCTH04-87" style="shape=tableRow;horizontal=0;startSize=0;swimlaneHead=0;swimlaneBody=0;top=0;left=0;bottom=0;right=0;dropTarget=0;collapsible=0;recursiveResize=0;expand=0;fontStyle=1;strokeColor=inherit;fillColor=#EAF2D3;" parent="G01MxNeBXoQxvPtCTH04-82" vertex="1">
          <mxGeometry y="95" width="240" height="31" as="geometry" />
        </mxCell>
        <mxCell id="G01MxNeBXoQxvPtCTH04-88" value="&lt;font color=&quot;#030303&quot;&gt;nombre&lt;/font&gt;&amp;nbsp;&lt;font color=&quot;#1ba1e2&quot;&gt;VARCHAR&lt;/font&gt;(25)" style="connectable=0;recursiveResize=0;strokeColor=inherit;fillColor=inherit;whiteSpace=wrap;html=1;" parent="G01MxNeBXoQxvPtCTH04-87" vertex="1">
          <mxGeometry width="240" height="31" as="geometry">
            <mxRectangle width="240" height="31" as="alternateBounds" />
          </mxGeometry>
        </mxCell>
        <mxCell id="G01MxNeBXoQxvPtCTH04-89" style="shape=tableRow;horizontal=0;startSize=0;swimlaneHead=0;swimlaneBody=0;top=0;left=0;bottom=0;right=0;dropTarget=0;collapsible=0;recursiveResize=0;expand=0;fontStyle=1;strokeColor=inherit;fillColor=#EAF2D3;" parent="G01MxNeBXoQxvPtCTH04-82" vertex="1">
          <mxGeometry y="126" width="240" height="31" as="geometry" />
        </mxCell>
        <mxCell id="G01MxNeBXoQxvPtCTH04-90" value="&lt;font color=&quot;#030303&quot;&gt;apellido_paterno&lt;/font&gt;&amp;nbsp;&lt;font color=&quot;#1ba1e2&quot;&gt;VARCHAR&lt;/font&gt;(25)" style="connectable=0;recursiveResize=0;strokeColor=inherit;fillColor=inherit;whiteSpace=wrap;html=1;" parent="G01MxNeBXoQxvPtCTH04-89" vertex="1">
          <mxGeometry width="240" height="31" as="geometry">
            <mxRectangle width="240" height="31" as="alternateBounds" />
          </mxGeometry>
        </mxCell>
        <mxCell id="G01MxNeBXoQxvPtCTH04-91" style="shape=tableRow;horizontal=0;startSize=0;swimlaneHead=0;swimlaneBody=0;top=0;left=0;bottom=0;right=0;dropTarget=0;collapsible=0;recursiveResize=0;expand=0;fontStyle=1;strokeColor=inherit;fillColor=#EAF2D3;" parent="G01MxNeBXoQxvPtCTH04-82" vertex="1">
          <mxGeometry y="157" width="240" height="31" as="geometry" />
        </mxCell>
        <mxCell id="G01MxNeBXoQxvPtCTH04-92" value="&lt;font color=&quot;#030303&quot;&gt;apellido_materno&lt;/font&gt;&amp;nbsp;&lt;font style=&quot;border-color: var(--border-color);&quot; color=&quot;#1ba1e2&quot;&gt;VARCHAR&lt;/font&gt;(25)" style="connectable=0;recursiveResize=0;strokeColor=inherit;fillColor=inherit;whiteSpace=wrap;html=1;" parent="G01MxNeBXoQxvPtCTH04-91" vertex="1">
          <mxGeometry width="240" height="31" as="geometry">
            <mxRectangle width="240" height="31" as="alternateBounds" />
          </mxGeometry>
        </mxCell>
        <mxCell id="G01MxNeBXoQxvPtCTH04-93" style="shape=tableRow;horizontal=0;startSize=0;swimlaneHead=0;swimlaneBody=0;top=0;left=0;bottom=0;right=0;dropTarget=0;collapsible=0;recursiveResize=0;expand=0;fontStyle=1;strokeColor=inherit;fillColor=#EAF2D3;" parent="G01MxNeBXoQxvPtCTH04-82" vertex="1">
          <mxGeometry y="188" width="240" height="31" as="geometry" />
        </mxCell>
        <mxCell id="G01MxNeBXoQxvPtCTH04-94" value="&lt;font color=&quot;#030303&quot;&gt;domicilio&lt;/font&gt;&amp;nbsp;&lt;font style=&quot;border-color: var(--border-color);&quot; color=&quot;#1ba1e2&quot;&gt;VARCHAR&lt;/font&gt;(50)" style="connectable=0;recursiveResize=0;strokeColor=inherit;fillColor=inherit;whiteSpace=wrap;html=1;" parent="G01MxNeBXoQxvPtCTH04-93" vertex="1">
          <mxGeometry width="240" height="31" as="geometry">
            <mxRectangle width="240" height="31" as="alternateBounds" />
          </mxGeometry>
        </mxCell>
        <mxCell id="Vr2GeewXSMRQuyDrMyL5-11" style="shape=tableRow;horizontal=0;startSize=0;swimlaneHead=0;swimlaneBody=0;top=0;left=0;bottom=0;right=0;dropTarget=0;collapsible=0;recursiveResize=0;expand=0;fontStyle=1;strokeColor=inherit;fillColor=#EAF2D3;" vertex="1" parent="G01MxNeBXoQxvPtCTH04-82">
          <mxGeometry y="219" width="240" height="31" as="geometry" />
        </mxCell>
        <mxCell id="Vr2GeewXSMRQuyDrMyL5-12" value="&lt;font color=&quot;#66cc00&quot;&gt;FOREIGN KEY&lt;/font&gt;&amp;nbsp;&lt;font color=&quot;#030303&quot;&gt;(codigo_sucursal)&lt;/font&gt;&lt;br&gt;&lt;font color=&quot;#66cc00&quot;&gt;REFERENCES&lt;/font&gt;&amp;nbsp;&lt;font color=&quot;#030303&quot;&gt;Sucursal(codigo_sucursal)&lt;/font&gt;" style="connectable=0;recursiveResize=0;strokeColor=inherit;fillColor=inherit;whiteSpace=wrap;html=1;" vertex="1" parent="Vr2GeewXSMRQuyDrMyL5-11">
          <mxGeometry width="240" height="31" as="geometry">
            <mxRectangle width="240" height="31" as="alternateBounds" />
          </mxGeometry>
        </mxCell>
        <mxCell id="G01MxNeBXoQxvPtCTH04-95" value="" style="edgeStyle=entityRelationEdgeStyle;fontSize=12;html=1;endArrow=ERoneToMany;startArrow=ERmandOne;rounded=0;entryX=1;entryY=0.5;entryDx=0;entryDy=0;exitX=0;exitY=0.25;exitDx=0;exitDy=0;strokeWidth=2;" parent="1" source="G01MxNeBXoQxvPtCTH04-59" target="G01MxNeBXoQxvPtCTH04-83" edge="1">
          <mxGeometry width="100" height="100" relative="1" as="geometry">
            <mxPoint x="390" y="400" as="sourcePoint" />
            <mxPoint x="490" y="300" as="targetPoint" />
            <Array as="points">
              <mxPoint x="580" y="260" />
            </Array>
          </mxGeometry>
        </mxCell>
        <mxCell id="G01MxNeBXoQxvPtCTH04-96" value="Assets" style="childLayout=tableLayout;recursiveResize=0;strokeColor=#98bf21;fillColor=#A7C942;shadow=1;fontColor=#030303;" parent="1" vertex="1">
          <mxGeometry x="-50" y="290" width="180" height="219" as="geometry" />
        </mxCell>
        <mxCell id="G01MxNeBXoQxvPtCTH04-97" style="shape=tableRow;horizontal=0;startSize=0;swimlaneHead=0;swimlaneBody=0;top=0;left=0;bottom=0;right=0;dropTarget=0;collapsible=0;recursiveResize=0;expand=0;fontStyle=0;strokeColor=inherit;fillColor=#ffffff;" parent="G01MxNeBXoQxvPtCTH04-96" vertex="1">
          <mxGeometry width="180" height="33" as="geometry" />
        </mxCell>
        <mxCell id="G01MxNeBXoQxvPtCTH04-98" value="&lt;h1&gt;Periodista&lt;/h1&gt;" style="connectable=0;recursiveResize=0;strokeColor=inherit;fillColor=#A7C942;align=center;fontStyle=1;fontColor=#FFFFFF;html=1;" parent="G01MxNeBXoQxvPtCTH04-97" vertex="1">
          <mxGeometry width="180" height="33" as="geometry">
            <mxRectangle width="180" height="33" as="alternateBounds" />
          </mxGeometry>
        </mxCell>
        <mxCell id="G01MxNeBXoQxvPtCTH04-99" value="" style="shape=tableRow;horizontal=0;startSize=0;swimlaneHead=0;swimlaneBody=0;top=0;left=0;bottom=0;right=0;dropTarget=0;collapsible=0;recursiveResize=0;expand=0;fontStyle=1;strokeColor=inherit;fillColor=#EAF2D3;" parent="G01MxNeBXoQxvPtCTH04-96" vertex="1">
          <mxGeometry y="33" width="180" height="31" as="geometry" />
        </mxCell>
        <mxCell id="G01MxNeBXoQxvPtCTH04-100" value="&lt;font color=&quot;#030303&quot;&gt;nif&lt;/font&gt;&amp;nbsp;&lt;font color=&quot;#1ba1e2&quot;&gt;INT&lt;/font&gt; &lt;font color=&quot;#66cc00&quot;&gt;PRIMARY KEY&lt;/font&gt;" style="connectable=0;recursiveResize=0;strokeColor=inherit;fillColor=inherit;whiteSpace=wrap;html=1;" parent="G01MxNeBXoQxvPtCTH04-99" vertex="1">
          <mxGeometry width="180" height="31" as="geometry">
            <mxRectangle width="180" height="31" as="alternateBounds" />
          </mxGeometry>
        </mxCell>
        <mxCell id="G01MxNeBXoQxvPtCTH04-101" style="shape=tableRow;horizontal=0;startSize=0;swimlaneHead=0;swimlaneBody=0;top=0;left=0;bottom=0;right=0;dropTarget=0;collapsible=0;recursiveResize=0;expand=0;fontStyle=1;strokeColor=inherit;fillColor=#EAF2D3;" parent="G01MxNeBXoQxvPtCTH04-96" vertex="1">
          <mxGeometry y="64" width="180" height="31" as="geometry" />
        </mxCell>
        <mxCell id="G01MxNeBXoQxvPtCTH04-102" value="&lt;font color=&quot;#030303&quot;&gt;nombre&lt;/font&gt;&amp;nbsp;&lt;font color=&quot;#1ba1e2&quot;&gt;VARCHAR&lt;/font&gt;(25)" style="connectable=0;recursiveResize=0;strokeColor=inherit;fillColor=inherit;whiteSpace=wrap;html=1;" parent="G01MxNeBXoQxvPtCTH04-101" vertex="1">
          <mxGeometry width="180" height="31" as="geometry">
            <mxRectangle width="180" height="31" as="alternateBounds" />
          </mxGeometry>
        </mxCell>
        <mxCell id="G01MxNeBXoQxvPtCTH04-103" style="shape=tableRow;horizontal=0;startSize=0;swimlaneHead=0;swimlaneBody=0;top=0;left=0;bottom=0;right=0;dropTarget=0;collapsible=0;recursiveResize=0;expand=0;fontStyle=1;strokeColor=inherit;fillColor=#EAF2D3;" parent="G01MxNeBXoQxvPtCTH04-96" vertex="1">
          <mxGeometry y="95" width="180" height="31" as="geometry" />
        </mxCell>
        <mxCell id="G01MxNeBXoQxvPtCTH04-104" value="&lt;font color=&quot;#030303&quot;&gt;apellido_paterno&lt;/font&gt;&amp;nbsp;&lt;font color=&quot;#1ba1e2&quot;&gt;VARCHAR&lt;/font&gt;(25)" style="connectable=0;recursiveResize=0;strokeColor=inherit;fillColor=inherit;whiteSpace=wrap;html=1;" parent="G01MxNeBXoQxvPtCTH04-103" vertex="1">
          <mxGeometry width="180" height="31" as="geometry">
            <mxRectangle width="180" height="31" as="alternateBounds" />
          </mxGeometry>
        </mxCell>
        <mxCell id="G01MxNeBXoQxvPtCTH04-105" style="shape=tableRow;horizontal=0;startSize=0;swimlaneHead=0;swimlaneBody=0;top=0;left=0;bottom=0;right=0;dropTarget=0;collapsible=0;recursiveResize=0;expand=0;fontStyle=1;strokeColor=inherit;fillColor=#EAF2D3;" parent="G01MxNeBXoQxvPtCTH04-96" vertex="1">
          <mxGeometry y="126" width="180" height="31" as="geometry" />
        </mxCell>
        <mxCell id="G01MxNeBXoQxvPtCTH04-106" value="&lt;font color=&quot;#030303&quot;&gt;apellido_materno&lt;/font&gt;&amp;nbsp;&lt;font style=&quot;border-color: var(--border-color);&quot; color=&quot;#1ba1e2&quot;&gt;VARCHAR&lt;/font&gt;(25)" style="connectable=0;recursiveResize=0;strokeColor=inherit;fillColor=inherit;whiteSpace=wrap;html=1;" parent="G01MxNeBXoQxvPtCTH04-105" vertex="1">
          <mxGeometry width="180" height="31" as="geometry">
            <mxRectangle width="180" height="31" as="alternateBounds" />
          </mxGeometry>
        </mxCell>
        <mxCell id="G01MxNeBXoQxvPtCTH04-109" style="shape=tableRow;horizontal=0;startSize=0;swimlaneHead=0;swimlaneBody=0;top=0;left=0;bottom=0;right=0;dropTarget=0;collapsible=0;recursiveResize=0;expand=0;fontStyle=1;strokeColor=inherit;fillColor=#EAF2D3;" parent="G01MxNeBXoQxvPtCTH04-96" vertex="1">
          <mxGeometry y="157" width="180" height="31" as="geometry" />
        </mxCell>
        <mxCell id="G01MxNeBXoQxvPtCTH04-110" value="&lt;font color=&quot;#030303&quot;&gt;especialidad&lt;/font&gt; &lt;font color=&quot;#1ba1e2&quot;&gt;VARCHAR&lt;/font&gt;(50)" style="connectable=0;recursiveResize=0;strokeColor=inherit;fillColor=inherit;whiteSpace=wrap;html=1;" parent="G01MxNeBXoQxvPtCTH04-109" vertex="1">
          <mxGeometry width="180" height="31" as="geometry">
            <mxRectangle width="180" height="31" as="alternateBounds" />
          </mxGeometry>
        </mxCell>
        <mxCell id="G01MxNeBXoQxvPtCTH04-107" style="shape=tableRow;horizontal=0;startSize=0;swimlaneHead=0;swimlaneBody=0;top=0;left=0;bottom=0;right=0;dropTarget=0;collapsible=0;recursiveResize=0;expand=0;fontStyle=1;strokeColor=inherit;fillColor=#EAF2D3;" parent="G01MxNeBXoQxvPtCTH04-96" vertex="1">
          <mxGeometry y="188" width="180" height="31" as="geometry" />
        </mxCell>
        <mxCell id="G01MxNeBXoQxvPtCTH04-108" value="&lt;font color=&quot;#030303&quot;&gt;domicilio&amp;nbsp;&lt;/font&gt;&lt;font style=&quot;border-color: var(--border-color);&quot; color=&quot;#1ba1e2&quot;&gt;VARCHAR&lt;/font&gt;(50)" style="connectable=0;recursiveResize=0;strokeColor=inherit;fillColor=inherit;whiteSpace=wrap;html=1;" parent="G01MxNeBXoQxvPtCTH04-107" vertex="1">
          <mxGeometry width="180" height="31" as="geometry">
            <mxRectangle width="180" height="31" as="alternateBounds" />
          </mxGeometry>
        </mxCell>
        <mxCell id="G01MxNeBXoQxvPtCTH04-123" value="Assets" style="childLayout=tableLayout;recursiveResize=0;strokeColor=#98bf21;fillColor=#A7C942;shadow=1;gradientColor=none;" parent="1" vertex="1">
          <mxGeometry x="174" y="240" width="240" height="157" as="geometry" />
        </mxCell>
        <mxCell id="G01MxNeBXoQxvPtCTH04-124" style="shape=tableRow;horizontal=0;startSize=0;swimlaneHead=0;swimlaneBody=0;top=0;left=0;bottom=0;right=0;dropTarget=0;collapsible=0;recursiveResize=0;expand=0;fontStyle=0;strokeColor=inherit;fillColor=#ffffff;" parent="G01MxNeBXoQxvPtCTH04-123" vertex="1">
          <mxGeometry width="240" height="33" as="geometry" />
        </mxCell>
        <mxCell id="G01MxNeBXoQxvPtCTH04-125" value="&lt;h1&gt;Artículo&lt;/h1&gt;" style="connectable=0;recursiveResize=0;strokeColor=inherit;fillColor=#A7C942;align=center;fontStyle=1;fontColor=#FFFFFF;html=1;" parent="G01MxNeBXoQxvPtCTH04-124" vertex="1">
          <mxGeometry width="240" height="33" as="geometry">
            <mxRectangle width="240" height="33" as="alternateBounds" />
          </mxGeometry>
        </mxCell>
        <mxCell id="G01MxNeBXoQxvPtCTH04-126" value="" style="shape=tableRow;horizontal=0;startSize=0;swimlaneHead=0;swimlaneBody=0;top=0;left=0;bottom=0;right=0;dropTarget=0;collapsible=0;recursiveResize=0;expand=0;fontStyle=1;strokeColor=inherit;fillColor=#EAF2D3;" parent="G01MxNeBXoQxvPtCTH04-123" vertex="1">
          <mxGeometry y="33" width="240" height="31" as="geometry" />
        </mxCell>
        <mxCell id="G01MxNeBXoQxvPtCTH04-127" value="&lt;font color=&quot;#030303&quot;&gt;nif&lt;/font&gt;&amp;nbsp;&lt;font style=&quot;border-color: var(--border-color);&quot; color=&quot;#1ba1e2&quot;&gt;INT&lt;/font&gt;" style="connectable=0;recursiveResize=0;strokeColor=inherit;fillColor=inherit;whiteSpace=wrap;html=1;" parent="G01MxNeBXoQxvPtCTH04-126" vertex="1">
          <mxGeometry width="240" height="31" as="geometry">
            <mxRectangle width="240" height="31" as="alternateBounds" />
          </mxGeometry>
        </mxCell>
        <mxCell id="G01MxNeBXoQxvPtCTH04-128" style="shape=tableRow;horizontal=0;startSize=0;swimlaneHead=0;swimlaneBody=0;top=0;left=0;bottom=0;right=0;dropTarget=0;collapsible=0;recursiveResize=0;expand=0;fontStyle=1;strokeColor=inherit;fillColor=#EAF2D3;" parent="G01MxNeBXoQxvPtCTH04-123" vertex="1">
          <mxGeometry y="64" width="240" height="31" as="geometry" />
        </mxCell>
        <mxCell id="G01MxNeBXoQxvPtCTH04-129" value="&lt;span style=&quot;color: rgb(0, 0, 0); font-family: Helvetica; font-size: 12px; font-style: normal; font-variant-ligatures: normal; font-variant-caps: normal; font-weight: 400; letter-spacing: normal; orphans: 2; text-align: center; text-indent: 0px; text-transform: none; widows: 2; word-spacing: 0px; -webkit-text-stroke-width: 0px; text-decoration-thickness: initial; text-decoration-style: initial; text-decoration-color: initial; float: none; display: inline !important;&quot;&gt;numero_registro&amp;nbsp;&lt;/span&gt;&lt;font style=&quot;border-color: var(--border-color); font-family: Helvetica; font-size: 12px; font-style: normal; font-variant-ligatures: normal; font-variant-caps: normal; font-weight: 400; letter-spacing: normal; orphans: 2; text-align: center; text-indent: 0px; text-transform: none; widows: 2; word-spacing: 0px; -webkit-text-stroke-width: 0px; text-decoration-thickness: initial; text-decoration-style: initial; text-decoration-color: initial;&quot; color=&quot;#1ba1e2&quot;&gt;INT&lt;/font&gt;" style="connectable=0;recursiveResize=0;strokeColor=inherit;fillColor=inherit;whiteSpace=wrap;html=1;" parent="G01MxNeBXoQxvPtCTH04-128" vertex="1">
          <mxGeometry width="240" height="31" as="geometry">
            <mxRectangle width="240" height="31" as="alternateBounds" />
          </mxGeometry>
        </mxCell>
        <mxCell id="G01MxNeBXoQxvPtCTH04-130" style="shape=tableRow;horizontal=0;startSize=0;swimlaneHead=0;swimlaneBody=0;top=0;left=0;bottom=0;right=0;dropTarget=0;collapsible=0;recursiveResize=0;expand=0;fontStyle=1;strokeColor=inherit;fillColor=#EAF2D3;" parent="G01MxNeBXoQxvPtCTH04-123" vertex="1">
          <mxGeometry y="95" width="240" height="31" as="geometry" />
        </mxCell>
        <mxCell id="G01MxNeBXoQxvPtCTH04-131" value="&lt;font color=&quot;#66cc00&quot;&gt;FOREIGN KEY&lt;/font&gt; &lt;font color=&quot;#030303&quot;&gt;(nif)&lt;/font&gt; &lt;font color=&quot;#66cc00&quot;&gt;REFERENCES&lt;/font&gt;&amp;nbsp;&lt;font color=&quot;#030303&quot;&gt;Periodista(nif)&lt;/font&gt;" style="connectable=0;recursiveResize=0;strokeColor=inherit;fillColor=inherit;whiteSpace=wrap;html=1;" parent="G01MxNeBXoQxvPtCTH04-130" vertex="1">
          <mxGeometry width="240" height="31" as="geometry">
            <mxRectangle width="240" height="31" as="alternateBounds" />
          </mxGeometry>
        </mxCell>
        <mxCell id="G01MxNeBXoQxvPtCTH04-132" style="shape=tableRow;horizontal=0;startSize=0;swimlaneHead=0;swimlaneBody=0;top=0;left=0;bottom=0;right=0;dropTarget=0;collapsible=0;recursiveResize=0;expand=0;fontStyle=1;strokeColor=inherit;fillColor=#EAF2D3;" parent="G01MxNeBXoQxvPtCTH04-123" vertex="1">
          <mxGeometry y="126" width="240" height="31" as="geometry" />
        </mxCell>
        <mxCell id="G01MxNeBXoQxvPtCTH04-133" value="&lt;font style=&quot;border-color: var(--border-color);&quot; color=&quot;#66cc00&quot;&gt;FOREIGN KEY&lt;/font&gt;&amp;nbsp;&lt;font color=&quot;#030303&quot;&gt;(numero_registro)&lt;/font&gt;&amp;nbsp;&lt;br&gt;&lt;font style=&quot;border-color: var(--border-color);&quot; color=&quot;#66cc00&quot;&gt;REFERENCES&lt;/font&gt;&amp;nbsp;&lt;font color=&quot;#030303&quot;&gt;Revista(numero_registro)&lt;/font&gt;" style="connectable=0;recursiveResize=0;strokeColor=inherit;fillColor=inherit;whiteSpace=wrap;html=1;" parent="G01MxNeBXoQxvPtCTH04-132" vertex="1">
          <mxGeometry width="240" height="31" as="geometry">
            <mxRectangle width="240" height="31" as="alternateBounds" />
          </mxGeometry>
        </mxCell>
        <mxCell id="G01MxNeBXoQxvPtCTH04-134" value="" style="edgeStyle=entityRelationEdgeStyle;fontSize=12;html=1;endArrow=ERoneToMany;startArrow=ERmandOne;rounded=0;entryX=0;entryY=0.5;entryDx=0;entryDy=0;exitX=1;exitY=0.5;exitDx=0;exitDy=0;strokeWidth=2;startFill=0;" parent="1" source="G01MxNeBXoQxvPtCTH04-24" target="G01MxNeBXoQxvPtCTH04-124" edge="1">
          <mxGeometry width="100" height="100" relative="1" as="geometry">
            <mxPoint x="140" y="208.5" as="sourcePoint" />
            <mxPoint x="350" y="168.5" as="targetPoint" />
            <Array as="points">
              <mxPoint x="180" y="234.5" />
              <mxPoint x="-20" y="234.5" />
            </Array>
          </mxGeometry>
        </mxCell>
        <mxCell id="G01MxNeBXoQxvPtCTH04-135" value="" style="edgeStyle=entityRelationEdgeStyle;fontSize=12;html=1;endArrow=ERoneToMany;startArrow=ERmandOne;rounded=0;entryX=0;entryY=0.5;entryDx=0;entryDy=0;exitX=1;exitY=0.5;exitDx=0;exitDy=0;strokeWidth=2;startFill=0;" parent="1" source="G01MxNeBXoQxvPtCTH04-97" target="G01MxNeBXoQxvPtCTH04-126" edge="1">
          <mxGeometry width="100" height="100" relative="1" as="geometry">
            <mxPoint x="20" y="330" as="sourcePoint" />
            <mxPoint x="230" y="290" as="targetPoint" />
            <Array as="points">
              <mxPoint x="60" y="356" />
              <mxPoint x="-140" y="356" />
            </Array>
          </mxGeometry>
        </mxCell>
        <mxCell id="G01MxNeBXoQxvPtCTH04-136" value="Assets" style="childLayout=tableLayout;recursiveResize=0;strokeColor=#98bf21;fillColor=#A7C942;shadow=1;" parent="1" vertex="1">
          <mxGeometry x="-330" y="90" width="230" height="200" as="geometry" />
        </mxCell>
        <mxCell id="G01MxNeBXoQxvPtCTH04-137" style="shape=tableRow;horizontal=0;startSize=0;swimlaneHead=0;swimlaneBody=0;top=0;left=0;bottom=0;right=0;dropTarget=0;collapsible=0;recursiveResize=0;expand=0;fontStyle=0;strokeColor=inherit;fillColor=#ffffff;" parent="G01MxNeBXoQxvPtCTH04-136" vertex="1">
          <mxGeometry width="230" height="33" as="geometry" />
        </mxCell>
        <mxCell id="G01MxNeBXoQxvPtCTH04-138" value="&lt;h1&gt;Ejemplar&lt;/h1&gt;" style="connectable=0;recursiveResize=0;strokeColor=inherit;fillColor=#A7C942;align=center;fontStyle=1;fontColor=#FFFFFF;html=1;" parent="G01MxNeBXoQxvPtCTH04-137" vertex="1">
          <mxGeometry width="230" height="33" as="geometry">
            <mxRectangle width="230" height="33" as="alternateBounds" />
          </mxGeometry>
        </mxCell>
        <mxCell id="G01MxNeBXoQxvPtCTH04-139" value="" style="shape=tableRow;horizontal=0;startSize=0;swimlaneHead=0;swimlaneBody=0;top=0;left=0;bottom=0;right=0;dropTarget=0;collapsible=0;recursiveResize=0;expand=0;fontStyle=1;strokeColor=inherit;fillColor=#EAF2D3;" parent="G01MxNeBXoQxvPtCTH04-136" vertex="1">
          <mxGeometry y="33" width="230" height="31" as="geometry" />
        </mxCell>
        <mxCell id="G01MxNeBXoQxvPtCTH04-140" value="&lt;font color=&quot;#030303&quot;&gt;fecha&lt;/font&gt;&amp;nbsp;&lt;font color=&quot;#1ba1e2&quot;&gt;INT&lt;/font&gt; &lt;font color=&quot;#66cc00&quot;&gt;PRIMARY KEY&lt;/font&gt;" style="connectable=0;recursiveResize=0;strokeColor=inherit;fillColor=inherit;whiteSpace=wrap;html=1;" parent="G01MxNeBXoQxvPtCTH04-139" vertex="1">
          <mxGeometry width="230" height="31" as="geometry">
            <mxRectangle width="230" height="31" as="alternateBounds" />
          </mxGeometry>
        </mxCell>
        <mxCell id="Vr2GeewXSMRQuyDrMyL5-3" style="shape=tableRow;horizontal=0;startSize=0;swimlaneHead=0;swimlaneBody=0;top=0;left=0;bottom=0;right=0;dropTarget=0;collapsible=0;recursiveResize=0;expand=0;fontStyle=1;strokeColor=inherit;fillColor=#EAF2D3;" vertex="1" parent="G01MxNeBXoQxvPtCTH04-136">
          <mxGeometry y="64" width="230" height="31" as="geometry" />
        </mxCell>
        <mxCell id="Vr2GeewXSMRQuyDrMyL5-4" value="&lt;font color=&quot;#030303&quot;&gt;numero_registro&lt;/font&gt;&amp;nbsp;&lt;font color=&quot;#1ba1e2&quot;&gt;INT&lt;/font&gt;" style="connectable=0;recursiveResize=0;strokeColor=inherit;fillColor=inherit;whiteSpace=wrap;html=1;" vertex="1" parent="Vr2GeewXSMRQuyDrMyL5-3">
          <mxGeometry width="230" height="31" as="geometry">
            <mxRectangle width="230" height="31" as="alternateBounds" />
          </mxGeometry>
        </mxCell>
        <mxCell id="G01MxNeBXoQxvPtCTH04-141" style="shape=tableRow;horizontal=0;startSize=0;swimlaneHead=0;swimlaneBody=0;top=0;left=0;bottom=0;right=0;dropTarget=0;collapsible=0;recursiveResize=0;expand=0;fontStyle=1;strokeColor=inherit;fillColor=#EAF2D3;" parent="G01MxNeBXoQxvPtCTH04-136" vertex="1">
          <mxGeometry y="95" width="230" height="31" as="geometry" />
        </mxCell>
        <mxCell id="G01MxNeBXoQxvPtCTH04-142" value="&lt;font color=&quot;#030303&quot;&gt;numero_paginas&lt;/font&gt;&amp;nbsp;&lt;font style=&quot;border-color: var(--border-color);&quot; color=&quot;#1ba1e2&quot;&gt;INT&lt;/font&gt;" style="connectable=0;recursiveResize=0;strokeColor=inherit;fillColor=inherit;whiteSpace=wrap;html=1;" parent="G01MxNeBXoQxvPtCTH04-141" vertex="1">
          <mxGeometry width="230" height="31" as="geometry">
            <mxRectangle width="230" height="31" as="alternateBounds" />
          </mxGeometry>
        </mxCell>
        <mxCell id="G01MxNeBXoQxvPtCTH04-143" style="shape=tableRow;horizontal=0;startSize=0;swimlaneHead=0;swimlaneBody=0;top=0;left=0;bottom=0;right=0;dropTarget=0;collapsible=0;recursiveResize=0;expand=0;fontStyle=1;strokeColor=inherit;fillColor=#EAF2D3;" parent="G01MxNeBXoQxvPtCTH04-136" vertex="1">
          <mxGeometry y="126" width="230" height="31" as="geometry" />
        </mxCell>
        <mxCell id="G01MxNeBXoQxvPtCTH04-144" value="&lt;font color=&quot;#030303&quot;&gt;ejemplares_vendidos&lt;/font&gt;&amp;nbsp;&lt;font style=&quot;border-color: var(--border-color);&quot; color=&quot;#1ba1e2&quot;&gt;INT&lt;/font&gt;" style="connectable=0;recursiveResize=0;strokeColor=inherit;fillColor=inherit;whiteSpace=wrap;html=1;" parent="G01MxNeBXoQxvPtCTH04-143" vertex="1">
          <mxGeometry width="230" height="31" as="geometry">
            <mxRectangle width="230" height="31" as="alternateBounds" />
          </mxGeometry>
        </mxCell>
        <mxCell id="Vr2GeewXSMRQuyDrMyL5-1" style="shape=tableRow;horizontal=0;startSize=0;swimlaneHead=0;swimlaneBody=0;top=0;left=0;bottom=0;right=0;dropTarget=0;collapsible=0;recursiveResize=0;expand=0;fontStyle=1;strokeColor=inherit;fillColor=#EAF2D3;" vertex="1" parent="G01MxNeBXoQxvPtCTH04-136">
          <mxGeometry y="157" width="230" height="43" as="geometry" />
        </mxCell>
        <mxCell id="Vr2GeewXSMRQuyDrMyL5-2" value="&lt;font color=&quot;#66cc00&quot;&gt;FOREIGN KEY&lt;/font&gt;&amp;nbsp;&lt;font color=&quot;#030303&quot;&gt;(numero_registro)&lt;/font&gt;&amp;nbsp;&lt;br&gt;&lt;font color=&quot;#66cc00&quot;&gt;REFERENCES&lt;/font&gt;&amp;nbsp;&lt;font color=&quot;#030303&quot;&gt;Revista(numero_registro)&lt;/font&gt;" style="connectable=0;recursiveResize=0;strokeColor=inherit;fillColor=inherit;whiteSpace=wrap;html=1;" vertex="1" parent="Vr2GeewXSMRQuyDrMyL5-1">
          <mxGeometry width="230" height="43" as="geometry">
            <mxRectangle width="230" height="43" as="alternateBounds" />
          </mxGeometry>
        </mxCell>
        <mxCell id="G01MxNeBXoQxvPtCTH04-145" value="" style="edgeStyle=entityRelationEdgeStyle;fontSize=12;html=1;endArrow=ERoneToMany;startArrow=ERmandOne;rounded=0;entryX=1;entryY=0.5;entryDx=0;entryDy=0;exitX=0;exitY=0.5;exitDx=0;exitDy=0;strokeWidth=2;" parent="1" source="G01MxNeBXoQxvPtCTH04-16" target="G01MxNeBXoQxvPtCTH04-137" edge="1">
          <mxGeometry width="100" height="100" relative="1" as="geometry">
            <mxPoint x="-190" y="350" as="sourcePoint" />
            <mxPoint x="-90" y="250" as="targetPoint" />
          </mxGeometry>
        </mxCell>
        <mxCell id="G01MxNeBXoQxvPtCTH04-146" value="Assets" style="childLayout=tableLayout;recursiveResize=0;strokeColor=#98bf21;fillColor=#A7C942;shadow=1;" parent="1" vertex="1">
          <mxGeometry x="-330" y="310" width="230" height="157" as="geometry" />
        </mxCell>
        <mxCell id="G01MxNeBXoQxvPtCTH04-147" style="shape=tableRow;horizontal=0;startSize=0;swimlaneHead=0;swimlaneBody=0;top=0;left=0;bottom=0;right=0;dropTarget=0;collapsible=0;recursiveResize=0;expand=0;fontStyle=0;strokeColor=inherit;fillColor=#ffffff;" parent="G01MxNeBXoQxvPtCTH04-146" vertex="1">
          <mxGeometry width="230" height="33" as="geometry" />
        </mxCell>
        <mxCell id="G01MxNeBXoQxvPtCTH04-148" value="&lt;h1&gt;Secciones fijas&lt;/h1&gt;" style="connectable=0;recursiveResize=0;strokeColor=inherit;fillColor=#A7C942;align=center;fontStyle=1;fontColor=#FFFFFF;html=1;" parent="G01MxNeBXoQxvPtCTH04-147" vertex="1">
          <mxGeometry width="230" height="33" as="geometry">
            <mxRectangle width="230" height="33" as="alternateBounds" />
          </mxGeometry>
        </mxCell>
        <mxCell id="G01MxNeBXoQxvPtCTH04-149" value="" style="shape=tableRow;horizontal=0;startSize=0;swimlaneHead=0;swimlaneBody=0;top=0;left=0;bottom=0;right=0;dropTarget=0;collapsible=0;recursiveResize=0;expand=0;fontStyle=1;strokeColor=inherit;fillColor=#EAF2D3;" parent="G01MxNeBXoQxvPtCTH04-146" vertex="1">
          <mxGeometry y="33" width="230" height="31" as="geometry" />
        </mxCell>
        <mxCell id="G01MxNeBXoQxvPtCTH04-150" value="&lt;font color=&quot;#030303&quot;&gt;extension&lt;/font&gt;&amp;nbsp;&lt;font color=&quot;#1ba1e2&quot;&gt;INT&lt;/font&gt; &lt;font color=&quot;#66cc00&quot;&gt;PRIMARY KEY&lt;/font&gt;" style="connectable=0;recursiveResize=0;strokeColor=inherit;fillColor=inherit;whiteSpace=wrap;html=1;" parent="G01MxNeBXoQxvPtCTH04-149" vertex="1">
          <mxGeometry width="230" height="31" as="geometry">
            <mxRectangle width="230" height="31" as="alternateBounds" />
          </mxGeometry>
        </mxCell>
        <mxCell id="Vr2GeewXSMRQuyDrMyL5-5" style="shape=tableRow;horizontal=0;startSize=0;swimlaneHead=0;swimlaneBody=0;top=0;left=0;bottom=0;right=0;dropTarget=0;collapsible=0;recursiveResize=0;expand=0;fontStyle=1;strokeColor=inherit;fillColor=#EAF2D3;" vertex="1" parent="G01MxNeBXoQxvPtCTH04-146">
          <mxGeometry y="64" width="230" height="31" as="geometry" />
        </mxCell>
        <mxCell id="Vr2GeewXSMRQuyDrMyL5-6" value="&lt;font color=&quot;#030303&quot;&gt;numero_registro&lt;/font&gt;&amp;nbsp;&lt;font color=&quot;#1ba1e2&quot;&gt;INT&lt;/font&gt;" style="connectable=0;recursiveResize=0;strokeColor=inherit;fillColor=inherit;whiteSpace=wrap;html=1;" vertex="1" parent="Vr2GeewXSMRQuyDrMyL5-5">
          <mxGeometry width="230" height="31" as="geometry">
            <mxRectangle width="230" height="31" as="alternateBounds" />
          </mxGeometry>
        </mxCell>
        <mxCell id="G01MxNeBXoQxvPtCTH04-151" style="shape=tableRow;horizontal=0;startSize=0;swimlaneHead=0;swimlaneBody=0;top=0;left=0;bottom=0;right=0;dropTarget=0;collapsible=0;recursiveResize=0;expand=0;fontStyle=1;strokeColor=inherit;fillColor=#EAF2D3;" parent="G01MxNeBXoQxvPtCTH04-146" vertex="1">
          <mxGeometry y="95" width="230" height="31" as="geometry" />
        </mxCell>
        <mxCell id="G01MxNeBXoQxvPtCTH04-152" value="&lt;font color=&quot;#030303&quot;&gt;titulo&lt;/font&gt; &lt;font color=&quot;#1ba1e2&quot;&gt;VARCHAR&lt;/font&gt;(50)" style="connectable=0;recursiveResize=0;strokeColor=inherit;fillColor=inherit;whiteSpace=wrap;html=1;" parent="G01MxNeBXoQxvPtCTH04-151" vertex="1">
          <mxGeometry width="230" height="31" as="geometry">
            <mxRectangle width="230" height="31" as="alternateBounds" />
          </mxGeometry>
        </mxCell>
        <mxCell id="Vr2GeewXSMRQuyDrMyL5-7" style="shape=tableRow;horizontal=0;startSize=0;swimlaneHead=0;swimlaneBody=0;top=0;left=0;bottom=0;right=0;dropTarget=0;collapsible=0;recursiveResize=0;expand=0;fontStyle=1;strokeColor=inherit;fillColor=#EAF2D3;" vertex="1" parent="G01MxNeBXoQxvPtCTH04-146">
          <mxGeometry y="126" width="230" height="31" as="geometry" />
        </mxCell>
        <mxCell id="Vr2GeewXSMRQuyDrMyL5-8" value="&lt;font color=&quot;#66cc00&quot;&gt;FOREIGN KEY&lt;/font&gt;&amp;nbsp;&lt;font color=&quot;#030303&quot;&gt;(numero_registro)&lt;/font&gt;&amp;nbsp;&lt;br&gt;&lt;font color=&quot;#66cc00&quot;&gt;REFERENCES&lt;/font&gt;&amp;nbsp;&lt;font color=&quot;#030303&quot;&gt;Revista(numero_registro)&lt;/font&gt;" style="connectable=0;recursiveResize=0;strokeColor=inherit;fillColor=inherit;whiteSpace=wrap;html=1;" vertex="1" parent="Vr2GeewXSMRQuyDrMyL5-7">
          <mxGeometry width="230" height="31" as="geometry">
            <mxRectangle width="230" height="31" as="alternateBounds" />
          </mxGeometry>
        </mxCell>
        <mxCell id="G01MxNeBXoQxvPtCTH04-157" value="" style="edgeStyle=entityRelationEdgeStyle;fontSize=12;html=1;endArrow=ERoneToMany;startArrow=ERmandOne;rounded=0;entryX=1;entryY=0.25;entryDx=0;entryDy=0;exitX=0;exitY=0.25;exitDx=0;exitDy=0;strokeWidth=2;" parent="1" source="G01MxNeBXoQxvPtCTH04-24" target="G01MxNeBXoQxvPtCTH04-147" edge="1">
          <mxGeometry width="100" height="100" relative="1" as="geometry">
            <mxPoint x="-90" y="280" as="sourcePoint" />
            <mxPoint x="-170" y="280" as="targetPoint" />
          </mxGeometry>
        </mxCell>
      </root>
    </mxGraphModel>
  </diagram>
</mxfile>
